ISO-10303-21;
HEADER;
FILE_DESCRIPTION(('ViewDefinition [CoordinationView]'),'2;1');
FILE_NAME('sample.ifc','2026-09-05T00:00:00',(''),(''),'','','');
FILE_SCHEMA(('IFC4'));
ENDSEC;
DATA;
#1=IFCPROJECT('2aG1gJ3aXH001abcdef011',#2,'Terminal B Project',$,$,$,$,$,#20);
#2=IFCOWNERHISTORY($,$,$,.ADDED.,$,$,$,0);
#20=IFCUNITASSIGNMENT((#21));
#21=IFCSIUNIT(*,.LENGTHUNIT.,$,.METRE.);
#10=IFCSITE('2aG1gJ3aXH002abcdef012',#2,'Terminal B Site',$,$,#100,$,$,.ELEMENT.,(33,42,45),(-117,-56,-30),0.,$,$);
#11=IFCBUILDING('2aG1gJ3aXH003abcdef013',#2,'Terminal B',$,$,#101,$,$,.ELEMENT.,$,$,$);
#12=IFCBUILDINGSTOREY('2aG1gJ3aXH004abcdef014',#2,'Level 1',$,$,#102,$,$,.ELEMENT.,0.);
#13=IFCBUILDINGSTOREY('2aG1gJ3aXH005abcdef015',#2,'Level 2',$,$,#103,$,$,.ELEMENT.,4.);
#14=IFCSPACE('2aG1gJ3aXH006abcdef016',#2,'Conference Room','2F conf',$,#104,$,$,.ELEMENT.,.INTERNAL.,$);
#15=IFCWINDOW('2aG1gJ3aXH007abcdef017',#2,'Window S-01','south window',$,#105,$,$,1.5,0.9,.WINDOW.,.NOTDEFINED.,$);
#16=IFCDOOR('2aG1gJ3aXH008abcdef018',#2,'Door D-01',$,$,#106,$,$,2.1,0.9,.DOOR.,.NOTDEFINED.,$);
#100=IFCLOCALPLACEMENT($,#110);
#101=IFCLOCALPLACEMENT(#100,#111);
#102=IFCLOCALPLACEMENT(#101,#112);
#103=IFCLOCALPLACEMENT(#101,#113);
#104=IFCLOCALPLACEMENT(#103,#114);
#105=IFCLOCALPLACEMENT(#104,#115);
#106=IFCLOCALPLACEMENT(#104,#116);
#110=IFCAXIS2PLACEMENT3D(#120,$,$);
#120=IFCCARTESIANPOINT((0.,0.,0.));
#111=IFCAXIS2PLACEMENT3D(#121,$,$);
#121=IFCCARTESIANPOINT((0.,0.,0.));
#112=IFCAXIS2PLACEMENT3D(#122,$,$);
#122=IFCCARTESIANPOINT((0.,0.,0.));
#113=IFCAXIS2PLACEMENT3D(#123,$,$);
#123=IFCCARTESIANPOINT((0.,0.,4.));
#114=IFCAXIS2PLACEMENT3D(#124,$,$);
#124=IFCCARTESIANPOINT((-7.,-3.,0.));
#115=IFCAXIS2PLACEMENT3D(#125,$,$);
#125=IFCCARTESIANPOINT((-2.2,1.2,1.1));
#116=IFCAXIS2PLACEMENT3D(#126,$,$);
#126=IFCCARTESIANPOINT((-1.5,1.,0.));
#200=IFCRELAGGREGATES('rel00000000000000000201',#2,$,$,#1,(#10));
#201=IFCRELAGGREGATES('rel00000000000000000202',#2,$,$,#10,(#11));
#202=IFCRELAGGREGATES('rel00000000000000000203',#2,$,$,#11,(#12,#13));
#203=IFCRELAGGREGATES('rel00000000000000000204',#2,$,$,#13,(#14));
#210=IFCRELCONTAINEDINSPATIALSTRUCTURE('rel00000000000000000211',#2,$,$,(#15,#16),#14);
ENDSEC;
END-ISO-10303-21;
